<svg width="48" height="48" viewBox="0 0 48 48" fill="none" xmlns="http://www.w3.org/2000/svg">
<path d="M24 19.6C25.1573 19.6 26.2672 20.0636 27.0856 20.8887C27.9039 21.7139 28.3636 22.833 28.3636 24C28.3636 25.167 27.9039 26.2861 27.0856 27.1113C26.2672 27.9364 25.1573 28.4 24 28.4C22.8427 28.4 21.7328 27.9364 20.9144 27.1113C20.0961 26.2861 19.6364 25.167 19.6364 24C19.6364 22.833 20.0961 21.7139 20.9144 20.8887C21.7328 20.0636 22.8427 19.6 24 19.6V19.6ZM24 13C31.2727 13 37.4836 17.5613 40 24C37.4836 30.4387 31.2727 35 24 35C16.7273 35 10.5164 30.4387 8 24C10.5164 17.5613 16.7273 13 24 13ZM11.1709 24C12.3466 26.4205 14.1721 28.4598 16.44 29.8861C18.7079 31.3124 21.3271 32.0686 24 32.0686C26.6729 32.0686 29.2921 31.3124 31.56 29.8861C33.8279 28.4598 35.6534 26.4205 36.8291 24C35.6534 21.5795 33.8279 19.5402 31.56 18.1139C29.2921 16.6876 26.6729 15.9314 24 15.9314C21.3271 15.9314 18.7079 16.6876 16.44 18.1139C14.1721 19.5402 12.3466 21.5795 11.1709 24V24Z" fill="black"/>
</svg>
