<svg width="48" height="48" viewBox="0 0 48 48" fill="none" xmlns="http://www.w3.org/2000/svg">
<path d="M34.5 17.3333H32.75V14.0952C32.75 9.62667 28.83 6 24 6C19.17 6 15.25 9.62667 15.25 14.0952V17.3333H13.5C11.575 17.3333 10 18.7905 10 20.5714V36.7619C10 38.5429 11.575 40 13.5 40H34.5C36.425 40 38 38.5429 38 36.7619V20.5714C38 18.7905 36.425 17.3333 34.5 17.3333ZM24 31.9048C22.075 31.9048 20.5 30.4476 20.5 28.6667C20.5 26.8857 22.075 25.4286 24 25.4286C25.925 25.4286 27.5 26.8857 27.5 28.6667C27.5 30.4476 25.925 31.9048 24 31.9048ZM29.425 17.3333H18.575V14.0952C18.575 11.3267 21.0075 9.07619 24 9.07619C26.9925 9.07619 29.425 11.3267 29.425 14.0952V17.3333Z" fill="black"/>
</svg>
