<svg width="48" height="48" viewBox="0 0 48 48" fill="none" xmlns="http://www.w3.org/2000/svg">
<path d="M24 35.52C20 35.52 16.464 33.472 14.4 30.4C14.448 27.2 20.8 25.44 24 25.44C27.2 25.44 33.552 27.2 33.6 30.4C32.5422 31.9751 31.1134 33.2658 29.4393 34.1587C27.7652 35.0515 25.8973 35.519 24 35.52V35.52ZM24 12.8C25.273 12.8 26.4939 13.3057 27.3941 14.2059C28.2943 15.1061 28.8 16.327 28.8 17.6C28.8 18.873 28.2943 20.0939 27.3941 20.9941C26.4939 21.8943 25.273 22.4 24 22.4C22.727 22.4 21.5061 21.8943 20.6059 20.9941C19.7057 20.0939 19.2 18.873 19.2 17.6C19.2 16.327 19.7057 15.1061 20.6059 14.2059C21.5061 13.3057 22.727 12.8 24 12.8V12.8ZM24 8C21.8989 8 19.8183 8.41385 17.8771 9.21793C15.9359 10.022 14.172 11.2006 12.6863 12.6863C9.68571 15.6869 8 19.7565 8 24C8 28.2435 9.68571 32.3131 12.6863 35.3137C14.172 36.7994 15.9359 37.978 17.8771 38.7821C19.8183 39.5861 21.8989 40 24 40C28.2435 40 32.3131 38.3143 35.3137 35.3137C38.3143 32.3131 40 28.2435 40 24C40 15.152 32.8 8 24 8Z" fill="black"/>
</svg>
