<svg width="48" height="48" viewBox="0 0 48 48" fill="none" xmlns="http://www.w3.org/2000/svg">
<path d="M9.45455 13.905L11.3164 12L35.6364 37.08L33.7891 39L29.3091 34.38C27.6364 34.95 25.8618 35.25 24 35.25C16.7273 35.25 10.5164 30.585 8 24C9.00364 21.36 10.6036 19.035 12.64 17.19L9.45455 13.905ZM24 19.5C25.1573 19.5 26.2672 19.9741 27.0856 20.818C27.9039 21.6619 28.3636 22.8065 28.3636 24C28.3644 24.5108 28.2808 25.0181 28.1164 25.5L22.5455 19.755C23.0128 19.5855 23.5046 19.4992 24 19.5V19.5ZM24 12.75C31.2727 12.75 37.4836 17.415 40 24C38.8129 27.1098 36.7956 29.8091 34.1818 31.785L32.1164 29.64C34.1278 28.2051 35.7501 26.2636 36.8291 24C35.6532 21.5249 33.8275 19.4397 31.5597 17.9813C29.2918 16.5229 26.6727 15.7498 24 15.75C22.4145 15.75 20.8582 16.02 19.4036 16.5L17.1636 14.205C19.2582 13.275 21.5709 12.75 24 12.75ZM11.1709 24C12.3468 26.4751 14.1725 28.5603 16.4403 30.0187C18.7082 31.4771 21.3273 32.2502 24 32.25C25.0036 32.25 25.9927 32.145 26.9091 31.935L23.5927 28.5C22.5806 28.3881 21.6361 27.9223 20.9163 27.18C20.1965 26.4378 19.7449 25.4638 19.6364 24.42L14.6909 19.305C13.2509 20.58 12.0436 22.17 11.1709 24V24Z" fill="black"/>
</svg>
