<?xml version="1.0" encoding="utf-8"?><svg xmlns="http://www.w3.org/2000/svg" xmlns:xlink="http://www.w3.org/1999/xlink"><symbol viewBox="0 0 48 48" id="eye-closed" xmlns="http://www.w3.org/2000/svg"><path d="M9.455 13.905L11.316 12l24.32 25.08L33.79 39l-4.48-4.62c-1.673.57-3.447.87-5.309.87-7.273 0-13.484-4.665-16-11.25a17.64 17.64 0 014.64-6.81l-3.185-3.285zM24 19.5a4.3 4.3 0 013.086 1.318A4.572 4.572 0 0128.364 24c0 .51-.083 1.018-.248 1.5l-5.57-5.745c.467-.17.959-.256 1.454-.255zm0-6.75c7.273 0 13.484 4.665 16 11.25a17.626 17.626 0 01-5.818 7.785l-2.066-2.145A14.675 14.675 0 0036.83 24a14.583 14.583 0 00-5.27-6.019A13.966 13.966 0 0024 15.75a14.7 14.7 0 00-4.596.75l-2.24-2.295A16.81 16.81 0 0124 12.75zM11.17 24a14.583 14.583 0 005.27 6.019A13.966 13.966 0 0024 32.25a13.12 13.12 0 002.91-.315L23.592 28.5a4.403 4.403 0 01-2.677-1.32 4.655 4.655 0 01-1.28-2.76l-4.945-5.115A14.733 14.733 0 0011.17 24z"/></symbol><symbol viewBox="0 0 48 48" id="eye-open" xmlns="http://www.w3.org/2000/svg"><path d="M24 19.6a4.35 4.35 0 013.086 1.289A4.419 4.419 0 0128.364 24c0 1.167-.46 2.286-1.278 3.111A4.346 4.346 0 0124 28.4a4.346 4.346 0 01-3.086-1.289A4.419 4.419 0 0119.636 24c0-1.167.46-2.286 1.278-3.111A4.346 4.346 0 0124 19.6zm0-6.6c7.273 0 13.484 4.561 16 11-2.516 6.439-8.727 11-16 11S10.516 30.439 8 24c2.516-6.439 8.727-11 16-11zM11.17 24a14.363 14.363 0 005.27 5.886A14.198 14.198 0 0024 32.07c2.673 0 5.292-.757 7.56-2.183A14.363 14.363 0 0036.83 24a14.363 14.363 0 00-5.27-5.886A14.198 14.198 0 0024 15.93c-2.673 0-5.292.757-7.56 2.183A14.363 14.363 0 0011.17 24z"/></symbol><symbol viewBox="0 0 48 48" id="lock" xmlns="http://www.w3.org/2000/svg"><path d="M34.5 17.333h-1.75v-3.238C32.75 9.627 28.83 6 24 6s-8.75 3.627-8.75 8.095v3.238H13.5c-1.925 0-3.5 1.458-3.5 3.238v16.19C10 38.544 11.575 40 13.5 40h21c1.925 0 3.5-1.457 3.5-3.238v-16.19c0-1.781-1.575-3.239-3.5-3.239zM24 31.905c-1.925 0-3.5-1.457-3.5-3.238s1.575-3.238 3.5-3.238 3.5 1.457 3.5 3.238c0 1.78-1.575 3.238-3.5 3.238zm5.425-14.572h-10.85v-3.238c0-2.768 2.433-5.019 5.425-5.019s5.425 2.25 5.425 5.02v3.237z"/></symbol><symbol viewBox="0 0 48 48" id="tick" xmlns="http://www.w3.org/2000/svg"><path d="M36.04 8.992l-15.58 20.54-9.21-9.204L7 24.578l14.165 14.164L41 13.242l-4.96-4.25z"/></symbol><symbol viewBox="0 0 48 48" id="user" xmlns="http://www.w3.org/2000/svg"><path d="M24 35.52c-4 0-7.536-2.048-9.6-5.12.048-3.2 6.4-4.96 9.6-4.96 3.2 0 9.552 1.76 9.6 4.96a11.571 11.571 0 01-9.6 5.12zm0-22.72a4.8 4.8 0 110 9.6 4.8 4.8 0 010-9.6zM24 8a16 16 0 1016 16c0-8.848-7.2-16-16-16z"/></symbol></svg>